<svg width="11" height="9" viewBox="0 0 11 9" fill="none" xmlns="http://www.w3.org/2000/svg">
<path d="M9.93432 1.125C10.0903 1.125 10.2399 1.06574 10.3502 0.960247C10.4605 0.854758 10.5225 0.711684 10.5225 0.5625C10.5225 0.413316 10.4605 0.270242 10.3502 0.164753C10.2399 0.0592633 10.0903 0 9.93432 0H8.75804C8.60206 0 8.45246 0.0592633 8.34216 0.164753C8.23186 0.270242 8.1699 0.413316 8.1699 0.5625V8.4375C8.1699 8.58668 8.23186 8.72976 8.34216 8.83525C8.45246 8.94074 8.60206 9 8.75804 9H9.93432C10.0903 9 10.2399 8.94074 10.3502 8.83525C10.4605 8.72976 10.5225 8.58668 10.5225 8.4375C10.5225 8.28832 10.4605 8.14524 10.3502 8.03975C10.2399 7.93426 10.0903 7.875 9.93432 7.875H9.34618V1.125H9.93432ZM6.95181 4.17375L5.29326 1.92375C5.20331 1.80248 5.06682 1.72021 4.91363 1.69491C4.76044 1.66961 4.603 1.70335 4.47575 1.78875C4.41214 1.83138 4.35799 1.88564 4.31642 1.94839C4.27486 2.01114 4.2467 2.08115 4.23358 2.15437C4.22045 2.22758 4.22262 2.30256 4.23996 2.37497C4.2573 2.44738 4.28946 2.51579 4.33459 2.57625L5.34619 3.9375H0.588144C0.43216 3.9375 0.282564 3.99676 0.172267 4.10225C0.0619694 4.20774 4.76837e-06 4.35082 4.76837e-06 4.5C4.76837e-06 4.64918 0.0619694 4.79226 0.172267 4.89775C0.282564 5.00324 0.43216 5.0625 0.588144 5.0625H5.29326L4.23461 6.4125C4.18827 6.47159 4.15455 6.53884 4.13538 6.6104C4.11621 6.68196 4.11197 6.75642 4.12289 6.82955C4.13381 6.90268 4.15969 6.97303 4.19904 7.03659C4.23839 7.10015 4.29045 7.15568 4.35224 7.2C4.45404 7.27302 4.57786 7.3125 4.70512 7.3125C4.79643 7.3125 4.88648 7.29217 4.96814 7.25311C5.04981 7.21406 5.12085 7.15736 5.17563 7.0875L6.94005 4.8375C7.01537 4.74236 7.05711 4.62678 7.05922 4.50746C7.06134 4.38814 7.02372 4.27127 6.95181 4.17375Z" fill="black"/>
</svg>
